<svg width="157" height="32" viewBox="0 0 157 32" fill="none" xmlns="http://www.w3.org/2000/svg">
<path d="M0 10.6652V16.5894C1.96136 16.588 3.90375 16.9858 5.71601 17.76C7.52827 18.5342 9.17484 19.6697 10.5615 21.1014C11.9478 22.5326 13.0472 24.2318 13.7969 26.1019C14.5466 27.9719 14.9318 29.9761 14.9305 31.9999H20.6661C20.6609 26.344 18.4821 20.9212 14.6077 16.9214C10.7333 12.9217 5.47978 10.6717 0 10.6652H0Z" fill="#75203D"/>
<path d="M28.6834 0H19.5938C24.192 3.00768 28.0883 7.02862 31.0029 11.7743V2.39241C31.0025 1.75775 30.7579 1.14924 30.323 0.700619C29.888 0.252003 29.2983 -1.57043e-07 28.6834 0Z" fill="#75203D"/>
<path d="M5.71113 0H0V5.33388C6.84989 5.34123 13.4172 8.15302 18.2609 13.1523C23.1046 18.1515 25.829 24.9298 25.8363 31.9999H31.0033V26.1052C29.835 19.6265 26.7934 13.6648 22.2787 9.00502C17.764 4.34523 11.988 1.20578 5.71113 0Z" fill="#75203D"/>
<path d="M45.0623 3.52246H41.4219V22.4613H45.0623V3.52246Z" fill="#75203D"/>
<path d="M58.4472 11.7281C57.8412 11.1594 57.1318 10.7206 56.3602 10.4371C54.7027 9.83639 52.8964 9.83639 51.239 10.4371C50.467 10.7204 49.7574 11.1593 49.1511 11.7281C48.5566 12.2938 48.0816 12.9801 47.756 13.7441C47.4194 14.5775 47.2461 15.4714 47.2461 16.3744C47.2461 17.2773 47.4194 18.1713 47.756 19.0047C48.0804 19.7708 48.5555 20.459 49.1511 21.0257C49.7563 21.5949 50.4656 22.0336 51.2373 22.3158C52.8946 22.9176 54.7013 22.9176 56.3586 22.3158C57.1306 22.0336 57.8401 21.5949 58.4456 21.0257C59.041 20.4588 59.516 19.7706 59.8407 19.0047C60.1773 18.1713 60.3506 17.2773 60.3506 16.3744C60.3506 15.4714 60.1773 14.5775 59.8407 13.7441C59.5154 12.9804 59.041 12.2941 58.4472 11.7281ZM55.9474 18.6047C55.3579 19.1528 54.5926 19.4561 53.7992 19.4561C53.0058 19.4561 52.2405 19.1528 51.651 18.6047C51.1555 17.9734 50.8851 17.1856 50.8851 16.3731C50.8851 15.5606 51.1555 14.7728 51.651 14.1415C52.2405 13.5934 53.0058 13.2901 53.7992 13.2901C54.5926 13.2901 55.3579 13.5934 55.9474 14.1415C56.4428 14.7728 56.7132 15.5606 56.7132 16.3731C56.7132 17.1856 56.4428 17.9734 55.9474 18.6047Z" fill="#75203D"/>
<path d="M71.5167 11.8903H71.471C71.3026 11.6464 71.1071 11.4237 70.8884 11.2268C70.6235 10.9849 70.3302 10.7784 70.0154 10.612C69.2197 10.1906 68.3365 9.97586 67.4422 9.98635C66.6585 9.97219 65.8835 10.1573 65.1855 10.5253C64.5351 10.8729 63.9608 11.3547 63.4982 11.9409C63.0266 12.545 62.6647 13.2323 62.4303 13.9695C62.1809 14.729 62.0539 15.5255 62.0541 16.3274C62.0449 17.1881 62.1847 18.0437 62.467 18.8537C62.7227 19.5929 63.1213 20.2708 63.6386 20.8461C64.1539 21.4091 64.7794 21.8526 65.4735 22.1472C66.2281 22.4646 67.0369 22.6221 67.8517 22.6103C68.4545 22.5996 69.0504 22.4766 69.6108 22.2474C70.2392 22.0013 70.7837 21.57 71.1764 21.0069H71.2254V22.1859C71.239 22.5791 71.1763 22.9712 71.0408 23.339C70.9053 23.7068 70.6998 24.0428 70.4364 24.3274C70.1023 24.6325 69.7117 24.8645 69.2881 25.0092C68.8646 25.1539 68.417 25.2085 67.9725 25.1695C67.2677 25.1776 66.5691 25.0324 65.9222 24.7434C65.2786 24.4465 64.6781 24.0588 64.1379 23.5914L62.1235 26.6945C62.9469 27.379 63.9093 27.8629 64.9391 28.1101C65.9581 28.3519 67.0003 28.4737 68.0459 28.473C70.3434 28.473 72.0543 27.876 73.1786 26.6819C74.3029 25.4878 74.8653 23.7384 74.8658 21.4339V10.287H71.5207L71.5167 11.8903ZM71.298 17.439C71.1544 17.7954 70.9439 18.1191 70.6787 18.3914C70.4088 18.669 70.0923 18.8939 69.7446 19.055C69.3835 19.2204 68.9929 19.3059 68.5979 19.3059C68.2028 19.3059 67.8122 19.2204 67.4511 19.055C67.1081 18.8916 66.7957 18.667 66.5284 18.3914C66.2621 18.1168 66.0508 17.7907 65.9066 17.4318C65.7625 17.0729 65.6883 16.6881 65.6883 16.2996C65.6883 15.9111 65.7625 15.5263 65.9066 15.1674C66.0508 14.8085 66.2621 14.4824 66.5284 14.2078C66.7959 13.9322 67.1082 13.7073 67.4511 13.5434C67.8123 13.3785 68.2029 13.2933 68.5979 13.2933C68.9928 13.2933 69.3834 13.3785 69.7446 13.5434C70.0921 13.7051 70.4086 13.9302 70.6787 14.2078C71.0792 14.6233 71.3517 15.1518 71.4619 15.7267C71.5721 16.3016 71.5151 16.8974 71.298 17.439Z" fill="#75203D"/>
<path d="M88.5419 11.7281C87.9359 11.1594 87.2265 10.7206 86.4549 10.4371C84.7975 9.83639 82.9912 9.83639 81.3337 10.4371C80.5618 10.7204 79.8521 11.1593 79.2459 11.7281C78.6513 12.2938 78.1764 12.9801 77.8507 13.7441C77.5141 14.5775 77.3408 15.4714 77.3408 16.3744C77.3408 17.2773 77.5141 18.1713 77.8507 19.0047C78.1751 19.7708 78.6502 20.459 79.2459 21.0257C79.8515 21.5951 80.5614 22.0338 81.3337 22.3158C82.991 22.9176 84.7976 22.9176 86.4549 22.3158C87.2269 22.0336 87.9365 21.5949 88.5419 21.0257C89.1376 20.459 89.6127 19.7708 89.9371 19.0047C90.2737 18.1713 90.447 17.2773 90.447 16.3744C90.447 15.4714 90.2737 14.5775 89.9371 13.7441C89.6114 12.9801 89.1365 12.2938 88.5419 11.7281ZM86.0421 18.6047C85.4526 19.1528 84.6873 19.4561 83.8939 19.4561C83.1005 19.4561 82.3352 19.1528 81.7457 18.6047C81.2502 17.9734 80.9799 17.1856 80.9799 16.3731C80.9799 15.5606 81.2502 14.7728 81.7457 14.1415C82.3352 13.5934 83.1005 13.2901 83.8939 13.2901C84.6873 13.2901 85.4526 13.5934 86.0421 14.1415C86.5376 14.7728 86.8079 15.5606 86.8079 16.3731C86.8079 17.1856 86.5376 17.9734 86.0421 18.6047Z" fill="#75203D"/>
<path d="M95.2766 10.3713H93.3242V22.4614H95.2766V10.3713Z" fill="#75203D"/>
<path d="M94.3003 4.1719C94.111 4.16818 93.923 4.20529 93.7484 4.28083C93.5737 4.35638 93.4163 4.46871 93.2861 4.61063C93.0876 4.81721 92.9528 5.07981 92.8987 5.36535C92.8445 5.65088 92.8735 5.94657 92.9819 6.21514C93.0903 6.48372 93.2733 6.71316 93.5078 6.87456C93.7424 7.03596 94.018 7.12208 94.2999 7.12208C94.5817 7.12208 94.8573 7.03596 95.0919 6.87456C95.3264 6.71316 95.5094 6.48372 95.6178 6.21514C95.7262 5.94657 95.7552 5.65088 95.7011 5.36535C95.6469 5.07981 95.5121 4.81721 95.3136 4.61063C95.1836 4.46865 95.0264 4.35627 94.8519 4.28072C94.6774 4.20516 94.4895 4.16809 94.3003 4.1719Z" fill="#75203D"/>
<path d="M109.718 11.8738C109.169 11.295 108.508 10.8415 107.779 10.5424C106.978 10.2167 106.124 10.0545 105.264 10.0649C104.453 10.0553 103.652 10.2413 102.923 10.6081C102.205 10.9764 101.57 11.4953 101.058 12.1314H101.006V10.3715H99.0557V28.352H101.006V20.3184H101.055C101.47 21.0552 102.074 21.6591 102.801 22.0632C103.644 22.5507 104.599 22.7961 105.566 22.7739C106.357 22.7791 107.141 22.6163 107.869 22.2956C108.572 21.9879 109.206 21.5351 109.733 20.9651C110.268 20.3825 110.689 19.6985 110.972 18.9508C111.573 17.3195 111.573 15.5176 110.972 13.8864C110.687 13.1369 110.26 12.453 109.718 11.8738ZM109.03 18.1895C108.848 18.7159 108.563 19.1982 108.193 19.6065C107.824 20.0149 107.377 20.3405 106.88 20.5634C105.782 21.0275 104.551 21.0275 103.453 20.5634C102.956 20.3405 102.508 20.0146 102.138 19.6058C101.768 19.197 101.483 18.7141 101.301 18.187C100.918 17.0412 100.918 15.7959 101.301 14.6502C101.483 14.1231 101.768 13.6401 102.138 13.2314C102.508 12.8226 102.956 12.4966 103.453 12.2738C104.551 11.8096 105.782 11.8096 106.88 12.2738C107.377 12.4966 107.825 12.8226 108.195 13.2314C108.565 13.6401 108.85 14.1231 109.032 14.6502C109.415 15.7959 109.415 17.0412 109.032 18.187L109.03 18.1895Z" fill="#75203D"/>
<path d="M121.257 16.421C120.886 16.1347 120.473 15.9123 120.033 15.7625C119.55 15.5944 119.057 15.4604 118.556 15.3616C118.181 15.2954 117.809 15.2094 117.442 15.104C117.116 15.0123 116.797 14.8912 116.491 14.7419C116.246 14.627 116.024 14.4647 115.838 14.2635C115.68 14.0837 115.595 13.8479 115.601 13.605C115.597 13.343 115.671 13.086 115.814 12.869C115.954 12.6547 116.138 12.474 116.352 12.3393C116.581 12.1965 116.83 12.0919 117.091 12.0294C117.358 11.9613 117.632 11.9265 117.907 11.9259C118.43 11.9091 118.947 12.0482 119.396 12.3267C119.801 12.5898 120.14 12.9482 120.384 13.3726L122.011 12.2619C121.651 11.5277 121.065 10.9371 120.346 10.5819C119.621 10.2344 118.831 10.058 118.031 10.0657C117.49 10.0643 116.95 10.1426 116.43 10.2981C115.931 10.4449 115.458 10.6723 115.027 10.9718C114.616 11.2584 114.274 11.6383 114.026 12.0825C113.77 12.5555 113.641 13.0903 113.651 13.632C113.631 14.1622 113.747 14.6886 113.989 15.157C114.209 15.5488 114.517 15.8808 114.886 16.1254C115.294 16.3909 115.736 16.5953 116.2 16.7326C116.701 16.8875 117.226 17.0254 117.777 17.1461C118.095 17.2151 118.403 17.2926 118.703 17.3785C118.984 17.4564 119.254 17.5737 119.504 17.7271C119.725 17.8622 119.916 18.0425 120.067 18.2568C120.217 18.4942 120.292 18.7743 120.28 19.0576C120.289 19.3554 120.21 19.6489 120.055 19.8997C119.899 20.1375 119.694 20.3361 119.454 20.4808C119.195 20.6405 118.911 20.7543 118.616 20.8176C118.315 20.8857 118.009 20.9204 117.702 20.9212C117.094 20.9455 116.491 20.7932 115.962 20.4816C115.476 20.1623 115.048 19.7569 114.699 19.2842L113.148 20.5246C113.628 21.2938 114.309 21.9069 115.113 22.293C115.937 22.6304 116.818 22.7931 117.703 22.7713C118.28 22.7718 118.855 22.7026 119.417 22.565C119.951 22.4376 120.459 22.2147 120.919 21.9065C121.358 21.6057 121.721 21.2016 121.979 20.7275C122.26 20.1895 122.398 19.5849 122.381 18.9743C122.397 18.4493 122.294 17.9278 122.081 17.4509C121.887 17.0466 121.605 16.6942 121.257 16.421Z" fill="#75203D"/>
<path d="M135.323 19.594V10.3713H133.371V16.2661C133.377 16.9016 133.305 17.5353 133.158 18.1524C133.033 18.6813 132.811 19.1808 132.505 19.6244C132.214 20.0367 131.827 20.3657 131.378 20.5801C130.863 20.8164 130.303 20.9315 129.739 20.917C129.358 20.9488 128.975 20.8856 128.622 20.7328C128.269 20.58 127.957 20.3419 127.712 20.0387C127.243 19.3344 127.013 18.4895 127.059 17.6362V10.3713H125.107V17.8374C125.101 18.5142 125.189 19.1883 125.369 19.8391C125.526 20.416 125.805 20.95 126.185 21.4029C126.566 21.8456 127.041 22.1915 127.572 22.4134C128.206 22.6686 128.882 22.7917 129.562 22.7755C130.02 22.7793 130.475 22.7138 130.914 22.581C131.31 22.4619 131.689 22.2883 132.04 22.0648C132.359 21.8618 132.65 21.6141 132.903 21.3288C133.131 21.0749 133.321 20.7874 133.467 20.4757H133.517C133.517 20.821 133.525 21.1578 133.542 21.4862C133.559 21.8147 133.567 22.142 133.567 22.4681H135.419C135.419 22.0712 135.403 21.6319 135.369 21.1502C135.335 20.6686 135.32 20.1498 135.323 19.594Z" fill="#75203D"/>
<path d="M156.423 13.0198C156.293 12.4348 156.036 11.8878 155.671 11.4198C155.304 10.967 154.83 10.619 154.295 10.4093C153.622 10.1583 152.908 10.0401 152.193 10.0606C151.415 10.0256 150.646 10.2375 149.99 10.6678C149.381 11.1185 148.87 11.6949 148.488 12.3604C148.388 12.1532 148.259 11.9163 148.1 11.6497C147.923 11.3617 147.699 11.1081 147.437 10.9002C147.115 10.6479 146.757 10.449 146.376 10.3107C145.864 10.1331 145.326 10.0498 144.786 10.0648C144.329 10.0609 143.874 10.1265 143.435 10.2594C143.039 10.3785 142.66 10.5521 142.308 10.7756C141.989 10.9788 141.699 11.2265 141.445 11.5116C141.217 11.7654 141.027 12.0529 140.882 12.3646H140.831C140.831 12.0194 140.823 11.6842 140.807 11.3541C140.791 11.024 140.782 10.6998 140.782 10.3722H138.93C138.93 10.7691 138.946 11.2084 138.979 11.6901C139.013 12.1718 139.029 12.6885 139.029 13.2404V22.4623H140.983V16.5726C140.977 15.9368 141.049 15.3028 141.196 14.6855C141.321 14.1563 141.542 13.6567 141.849 13.2135C142.139 12.801 142.527 12.472 142.975 12.2577C143.49 12.0212 144.051 11.9062 144.615 11.9208C144.949 11.8914 145.285 11.9538 145.588 12.1017C145.891 12.2496 146.151 12.4777 146.341 12.7629C146.76 13.649 146.942 14.6347 146.867 15.6177V22.464H148.816V15.4863C148.81 14.9891 148.891 14.4948 149.054 14.0269C149.199 13.6122 149.42 13.2306 149.707 12.9036C149.977 12.5974 150.305 12.3513 150.67 12.1802C151.04 12.0075 151.441 11.9193 151.847 11.9217C152.329 11.9036 152.808 12.0007 153.248 12.2055C153.595 12.3783 153.895 12.6359 154.124 12.9558C154.344 13.2725 154.497 13.6329 154.575 14.0143C154.658 14.4133 154.7 14.8204 154.7 15.2286V22.4623H156.648V15.125C156.655 14.4165 156.58 13.7096 156.423 13.0198Z" fill="#75203D"/>
</svg>
